<?xml version="1.0" encoding="UTF-8" standalone="no"?>
<svg
   xmlns:dc="http://purl.org/dc/elements/1.1/"
   xmlns:cc="http://creativecommons.org/ns#"
   xmlns:rdf="http://www.w3.org/1999/02/22-rdf-syntax-ns#"
   xmlns:svg="http://www.w3.org/2000/svg"
   xmlns="http://www.w3.org/2000/svg"
   xmlns:sodipodi="http://sodipodi.sourceforge.net/DTD/sodipodi-0.dtd"
   xmlns:inkscape="http://www.inkscape.org/namespaces/inkscape"
   width="512"
   height="512"
   version="1.1"
   id="svg33"
   sodipodi:docname="logo.svg"
   inkscape:version="1.0.1 (3bc2e813f5, 2020-09-07)"
   inkscape:export-filename="/home/nebulon/projects/yellowtent/apps/weblate-app/logo.png"
   inkscape:export-xdpi="96"
   inkscape:export-ydpi="96">
  <metadata
     id="metadata37">
    <rdf:RDF>
      <cc:Work
         rdf:about="">
        <dc:format>image/svg+xml</dc:format>
        <dc:type
           rdf:resource="http://purl.org/dc/dcmitype/StillImage" />
        <dc:title></dc:title>
      </cc:Work>
    </rdf:RDF>
  </metadata>
  <sodipodi:namedview
     pagecolor="#ffffff"
     bordercolor="#666666"
     borderopacity="1"
     objecttolerance="10"
     gridtolerance="10"
     guidetolerance="10"
     inkscape:pageopacity="0"
     inkscape:pageshadow="2"
     inkscape:window-width="1920"
     inkscape:window-height="1025"
     id="namedview35"
     showgrid="false"
     inkscape:zoom="0.98063289"
     inkscape:cx="179.79238"
     inkscape:cy="210.31763"
     inkscape:window-x="0"
     inkscape:window-y="0"
     inkscape:window-maximized="1"
     inkscape:current-layer="svg33" />
  <defs
     id="defs19">
    <linearGradient
       id="a"
       x2="49.404354"
       y1="27.625535"
       y2="27.625535"
       gradientTransform="scale(0.98307377,1.0172177)"
       x1="0.19832876"
       gradientUnits="userSpaceOnUse">
      <stop
         stop-color="#00D2E6"
         offset="0"
         id="stop2" />
      <stop
         stop-color="#2ECCAA"
         offset="1"
         id="stop4" />
    </linearGradient>
    <linearGradient
       id="b"
       x1="24.508655"
       x2="49.896555"
       y1="68.943519"
       y2="56.981077"
       gradientTransform="scale(1.1630556,0.85980411)"
       gradientUnits="userSpaceOnUse">
      <stop
         stop-opacity="0"
         offset="0"
         id="stop7" />
      <stop
         offset=".514"
         id="stop9" />
      <stop
         stop-opacity="0"
         offset="1"
         id="stop11" />
    </linearGradient>
    <linearGradient
       id="c"
       x1="100.91135"
       x2="51.788586"
       y1="28.825366"
       y2="28.825366"
       gradientTransform="scale(0.98308096,1.0172102)"
       gradientUnits="userSpaceOnUse">
      <stop
         stop-color="#1FA385"
         offset="0"
         id="stop14" />
      <stop
         stop-color="#2ECCAA"
         offset="1"
         id="stop16" />
    </linearGradient>
  </defs>
  <g
     fill="none"
     fill-rule="evenodd"
     id="g31"
     transform="matrix(5.119381,0,0,5.119381,1.569324,67.304076)">
    <g
       transform="translate(-315,-40)"
       id="g29">
      <g
         transform="translate(315,40)"
         id="g27">
        <path
           d="m 63.624,55.803 a 10.727,10.727 0 0 1 -4.24,-0.892 c -3.056,-1.332 -5.747,-3.846 -7.936,-7.248 a 36.014,36.014 0 0 0 1.69,-3.426 c 2.202,-5.122 3.25,-10.73 3.33,-16.297 A 7.552,7.552 0 0 1 56.44,27.607 l -0.006,-0.286 c -0.005,-2.182 -0.337,-4.394 -1.088,-6.454 -0.865,-2.373 -2.244,-4.748 -4.433,-5.674 a 2.97,2.97 0 0 0 -1.232,-0.228 c -2.752,-5.145 -2.84,-10.074 0,-14.77 l 0.154,0.001 c 3.35,0.037 6.67,1.071 9.51,2.877 7.735,4.917 11.592,14.5 11.677,23.909 0,0.11 0,0.22 -0.004,0.33 h 0.043 c -0.01,9.944 -2.402,20.028 -7.437,28.49 z M 46.474,71.411 C 39.25,74.382 30.86,74.223 23.699,70.899 15.461,67.075 9.167,59.642 5.29,51.159 -1.341,36.649 -1.493,19.301 4.796,4.569 c 4.723,1.889 8.923,-1.12 8.923,-1.12 0,0 -0.01,4.63 4.473,6.952 -4.6,10.778 -4.49,23.583 0.121,34.086 2.22,5.054 5.61,9.76 10.309,12.421 1.677,0.95 3.52,1.563 5.417,1.793 l 0.02,0.033 c 3.349,5.225 7.567,9.579 12.415,12.677 z"
           fill="url(#a)"
           fill-rule="nonzero"
           id="path21"
           style="fill:url(#a)" />
        <path
           d="m 63.621,55.807 a 10.727,10.727 0 0 1 -4.238,-0.892 c -3.056,-1.332 -5.747,-3.847 -7.936,-7.25 a 36.001,36.001 0 0 0 1.69,-3.428 38.892,38.892 0 0 0 1.682,-4.75 c 1.064,-3.75 15.191,1.009 13.036,7.185 a 50.18,50.18 0 0 1 -4.234,9.135 z M 46.47,71.413 c -7.223,2.97 -15.612,2.81 -22.771,-0.514 -8.238,-3.824 0.224,-16.652 4.923,-13.99 a 14.571,14.571 0 0 0 5.414,1.793 l 0.024,0.037 c 3.347,5.223 7.564,9.576 12.41,12.675 z"
           fill="url(#b)"
           opacity="0.7"
           style="mix-blend-mode:soft-light;fill:url(#b)"
           id="path23" />
        <path
           d="m 28.381,27.314 a 8.154,8.154 0 0 1 -0.004,-0.33 c 0.086,-9.41 3.942,-18.993 11.676,-23.91 2.841,-1.806 6.16,-2.84 9.511,-2.877 h 0.154 v 14.769 a 2.97,2.97 0 0 0 -1.232,0.228 c -2.188,0.927 -3.568,3.301 -4.433,5.674 -0.75,2.06 -1.083,4.272 -1.088,6.455 l -0.006,0.285 a 7.554,7.554 0 0 1 -0.028,0.333 c 0.08,5.567 1.128,11.175 3.33,16.297 2.467,5.736 6.388,11.013 11.925,13.424 4.176,1.82 8.806,1.39 12.59,-0.753 4.7,-2.661 8.09,-7.367 10.31,-12.421 4.61,-10.503 4.72,-23.308 0.12,-34.086 4.484,-2.322 4.474,-6.953 4.474,-6.953 0,0 4.2,3.01 8.923,1.12 6.289,14.733 6.137,32.08 -0.494,46.591 C 90.232,59.644 83.938,67.076 75.699,70.9 68.366,74.304 59.744,74.389 52.404,71.191 45.809,68.317 40.444,63.138 36.586,57.116 30.996,48.395 28.35,37.777 28.338,27.314 Z"
           fill="url(#c)"
           fill-rule="nonzero"
           id="path25"
           style="fill:url(#c)" />
      </g>
    </g>
  </g>
</svg>
